/vscmnt/brussel_pixiu_data/_data_brussel/112/vsc11236/PredSimResults/SUBJ11opt3D/weighted-trackIG/worker_02.mot
version=1
nRows=8
nColumns=50
inDegrees=yes
endheader
                time	         pelvis_tilt	         pelvis_list	     pelvis_rotation	           pelvis_tx	           pelvis_ty	           pelvis_tz	       hip_flexion_r	     hip_adduction_r	      hip_rotation_r	        knee_angle_r	       ankle_angle_r	         mtp_angle_r	       hip_flexion_l	     hip_adduction_l	      hip_rotation_l	        knee_angle_l	       ankle_angle_l	         mtp_angle_l	    lumbar_extension	      lumbar_bending	     lumbar_rotation	 ercspn_r/activation	 intobl_r/activation	 extobl_r/activation	    abd_r/activation	    add_r/activation	hamstrings_r/activation	bifemsh_r/activation	glut_max_r/activation	iliopsoas_r/activation	rect_fem_r/activation	  vasti_r/activation	gastroc_r/activation	 soleus_r/activation	tib_ant_r/activation	 ercspn_l/activation	 intobl_l/activation	 extobl_l/activation	    abd_l/activation	    add_l/activation	hamstrings_l/activation	bifemsh_l/activation	glut_max_l/activation	iliopsoas_l/activation	rect_fem_l/activation	  vasti_l/activation	gastroc_l/activation	 soleus_l/activation	tib_ant_l/activation	
          0.70472336	         -2.88390435	          1.19902776	         -6.23121826	          0.73291229	          0.94087096	          0.00438847	        -13.80041953	         -3.27533458	         -1.94687412	        -12.69890045	         12.33524654	         30.28257925	         31.06536930	         -1.57119954	         -4.23384224	        -10.50400449	          1.43121224	          0.25672169	        -14.02705156	          2.17227516	          3.41706730	          0.01000004	          0.01000000	          0.00999999	          0.03546556	          0.03947503	          0.02011152	          0.22247185	          0.02421975	          0.19174754	          0.01000006	          0.01000000	          0.14082852	          0.31494560	          0.01234906	          0.02547861	          0.21591640	          0.06033020	          0.00999999	          0.23665203	          0.03351443	          0.10607469	          0.08505288	          0.09560531	          0.04010858	          0.01586727	          0.01000000	          0.00999999	          0.41460802	
          0.71881782	         -3.02023423	          1.26742938	         -6.27965333	          0.75199066	          0.93871736	          0.00298208	        -14.22981294	         -3.55720181	         -2.34445996	        -13.70150106	         11.48940190	         32.18352456	         30.74165517	         -1.36335357	         -4.37706287	        -11.63545092	          0.95425512	          0.20992131	        -13.52665248	          1.64142752	          3.63342734	          0.01429329	          0.00999999	          0.01000002	          0.02871920	          0.03196598	          0.02777312	          0.18015273	          0.01961260	          0.15527278	          0.01000000	          0.00999999	          0.11403971	          0.29085071	          0.00999999	          0.02063200	          0.17484423	          0.04885401	          0.03469046	          0.19163541	          0.05267436	          0.08589686	          0.11239609	          0.07741899	          0.03247901	          0.01284895	          0.01234907	          0.01234906	          0.46476217	
          0.73291229	         -3.13575792	          1.33575980	         -6.30065608	          0.77131786	          0.93696116	          0.00149297	        -14.45904583	         -3.85329197	         -2.75392074	        -15.08957354	         10.45990270	         34.17575690	         30.37477399	         -1.17247398	         -4.56605910	        -12.73824001	          0.28618161	          0.20195207	        -13.01140946	          1.10681121	          3.83805448	          0.02617001	          0.00999999	          0.01000000	          0.02325615	          0.02588532	          0.02249005	          0.14588357	          0.01588184	          0.13354140	          0.01000000	          0.00999999	          0.09234674	          0.26367332	          0.00999999	          0.02579765	          0.14158485	          0.03956086	          0.08102410	          0.22983081	          0.04840061	          0.06955731	          0.12422214	          0.06269212	          0.02630076	          0.01359290	          0.00999999	          0.00999999	          0.53682214	
          0.74700676	         -3.23026330	          1.39284292	         -6.29067352	          0.79057662	          0.93578609	         -0.00008234	        -14.40001194	         -4.15464211	         -3.16934826	        -16.97178275	          9.21296529	         36.22778637	         30.10198815	         -1.00861786	         -4.82528512	        -14.00506112	         -0.44268886	          0.15994410	        -12.51957328	          0.58312778	          4.02522140	          0.05367927	          0.00999999	          0.00999999	          0.01883229	          0.07310762	          0.02816662	          0.11813319	          0.01286075	          0.10813878	          0.01000000	          0.00999999	          0.07478027	          0.22314850	          0.00999999	          0.03169489	          0.11465216	          0.03203547	          0.11405491	          0.26916842	          0.05468228	          0.05632592	          0.10640541	          0.05076664	          0.02129775	          0.09580180	          0.00999999	          0.00999999	          0.59166330	
          0.76110123	         -3.30521452	          1.44063311	         -6.25237530	          0.80959433	          0.93534565	         -0.00171973	        -13.98125401	         -4.46691484	         -3.58793592	        -19.43899596	          7.73701138	         38.20973618	         29.87405357	         -0.85622707	         -5.09588749	        -15.40384996	         -0.86934954	          0.10118908	        -12.06538117	          0.06896624	          4.19249260	          0.08504808	          0.00999999	          0.01000000	          0.01524996	          0.14484634	          0.03790695	          0.09566157	          0.01041434	          0.08756831	          0.01000000	          0.00999999	          0.06055535	          0.18070054	          0.00999999	          0.02566586	          0.09284269	          0.02594159	          0.13436694	          0.28714587	          0.05658718	          0.04561145	          0.12792358	          0.04110966	          0.01724643	          0.16354555	          0.00999999	          0.00999999	          0.60308865	
          0.77519569	         -3.36344326	          1.47903091	         -6.18285519	          0.82815588	          0.93580065	         -0.00338233	        -13.13469958	         -4.79156399	         -4.01649307	        -22.56247249	          6.03210707	         39.87755212	         29.62173134	         -0.69946955	         -5.32231595	        -16.83313830	         -0.78770065	          0.05001556	        -11.66784253	         -0.43692116	          4.33347124	          0.10199307	          0.00999999	          0.01000000	          0.01234907	          0.19495847	          0.05357152	          0.08562430	          0.00999999	          0.07091082	          0.00999999	          0.00999999	          0.04903633	          0.14632715	          0.00999999	          0.02078363	          0.07518188	          0.02100691	          0.14637428	          0.30077421	          0.05951492	          0.03693512	          0.13145085	          0.03328966	          0.01396577	          0.19758295	          0.00999999	          0.00999999	          0.55274396	
          0.78929016	         -3.40709132	          1.49832007	         -6.08031277	          0.84611757	          0.93718145	         -0.00502307	        -11.83243858	         -5.12559343	         -4.48927009	        -26.37582859	          4.28117885	         40.61282696	         29.27833552	         -0.53484412	         -5.45908867	        -18.15383068	         -0.22887852	          0.05575592	        -11.33871198	         -0.92730041	          4.44427492	          0.10479153	          0.01000000	          0.01000000	          0.00999999	          0.24884109	          0.05654774	          0.06933662	          0.00999999	          0.05742196	          0.00999999	          0.00999999	          0.03970850	          0.11849237	          0.00999999	          0.01683011	          0.06088057	          0.01701091	          0.14908304	          0.29900446	          0.06221832	          0.02990923	          0.12715496	          0.02695721	          0.01130916	          0.24351935	          0.01000000	          0.00999999	          0.46169381	
          0.80338463	         -3.43832736	          1.47862551	         -5.93859498	          0.86343141	          0.93947951	         -0.00659497	        -10.09083118	         -5.46045365	         -5.00670244	        -30.82055632	          2.48327020	         40.14747668	         28.73940008	         -0.36935372	         -5.48399568	        -19.14288354	          0.61627078	          0.19974024	        -11.08158416	         -1.38433135	          4.51898485	          0.08636536	          0.01000000	          0.02295875	          0.00999999	          0.28808644	          0.04944815	          0.06031733	          0.00999999	          0.04649898	          0.00999999	          0.00999999	          0.03215503	          0.09595240	          0.00999999	          0.01362864	          0.04929969	          0.01377505	          0.14239961	          0.28077436	          0.06618855	          0.02421982	          0.10375979	          0.02182933	          0.01000000	          0.26764431	          0.01000000	          0.00999999	          0.37545650	
